<svg id="Calque_1" data-name="Calque 1" xmlns="http://www.w3.org/2000/svg" viewBox="0 0 139.47 18.82"><defs><style>.cls-1{fill:#2f855b;}.cls-2{fill:#2d3747;}</style></defs><title>logo</title><path class="cls-1" d="M10.36,12.34h0A5.4,5.4,0,0,1,11.69,11a4.37,4.37,0,0,1,2.56-.75,4.86,4.86,0,0,1,3.84,1.73,7.73,7.73,0,0,1,1.64,5.28,9,9,0,0,1-1.31,5.08,4.7,4.7,0,0,1-4.19,2.28,4.65,4.65,0,0,1-2.16-.5,3.87,3.87,0,0,1-1.71-1.59h-.07v1.64H6.89V5.76h3.47Zm5.18,2.25a2.53,2.53,0,0,0-2.3-1.26,2.55,2.55,0,0,0-2.41,1.33,6.36,6.36,0,0,0-.59,3,4.9,4.9,0,0,0,.7,2.74,2.7,2.7,0,0,0,2.39,1.22,2.48,2.48,0,0,0,2.28-1.47,5.66,5.66,0,0,0,.61-2.65A5.55,5.55,0,0,0,15.54,14.59Z" transform="translate(-6.89 -5.76)"/><path class="cls-1" d="M32.63,20.19a5.73,5.73,0,0,1-2.39,3.4,5.82,5.82,0,0,1-3.35,1,6.31,6.31,0,0,1-4.64-1.64Q20.38,21,20.37,17.1a8,8,0,0,1,1-4.08,5.61,5.61,0,0,1,5.28-2.81,5.81,5.81,0,0,1,4,1.41c1.39,1.26,2.09,3.28,2.09,6v.71H23.84v.09a5.2,5.2,0,0,0,.61,2,2.6,2.6,0,0,0,2.44,1.22,2.41,2.41,0,0,0,1.33-.39,2.29,2.29,0,0,0,.89-1.11ZM29.23,16a3.25,3.25,0,0,0-1-2.23,2.5,2.5,0,0,0-1.65-.58,2.33,2.33,0,0,0-1.82.75A3.49,3.49,0,0,0,24,16Z" transform="translate(-6.89 -5.76)"/><path class="cls-1" d="M46.25,24.13H42.78V15.9a3.8,3.8,0,0,0-.33-1.71,2,2,0,0,0-1.92-1,2.65,2.65,0,0,0-2,.8,3.27,3.27,0,0,0-.8,2.34v7.76H34.27V10.58h3.35v2h0a5.22,5.22,0,0,1,1.24-1.5,4.34,4.34,0,0,1,2.74-.87,4.61,4.61,0,0,1,3.28,1.15,4.39,4.39,0,0,1,1.34,3.42Z" transform="translate(-6.89 -5.76)"/><path class="cls-1" d="M59.1,22.82a6.26,6.26,0,0,1-4.55,1.76,6.44,6.44,0,0,1-4.64-1.76,7.13,7.13,0,0,1-2-5.42,7.26,7.26,0,0,1,2-5.46,6.5,6.5,0,0,1,4.64-1.73,6.32,6.32,0,0,1,4.55,1.73,7.26,7.26,0,0,1,2,5.46A7.13,7.13,0,0,1,59.1,22.82ZM57,14.64a2.59,2.59,0,0,0-2.46-1.41A2.67,2.67,0,0,0,52,14.64a6,6,0,0,0-.54,2.76A5.89,5.89,0,0,0,52,20.1a2.67,2.67,0,0,0,2.53,1.43A2.59,2.59,0,0,0,57,20.1a5.63,5.63,0,0,0,.57-2.7A5.78,5.78,0,0,0,57,14.64Z" transform="translate(-6.89 -5.76)"/><path class="cls-1" d="M66.88,9.11H63.39V5.76h3.49Zm0,1.59V24.13H63.39V10.7Z" transform="translate(-6.89 -5.76)"/><path class="cls-1" d="M73.8,10.42H76V13H73.8v7.79a1.24,1.24,0,0,0,.19.84,2,2,0,0,0,1.27.26l.7-.05v2.67l-.68,0-1,.07H73.9a4.21,4.21,0,0,1-3-.82,3,3,0,0,1-.65-2.14V13H68.53V10.42h1.76V6.72H73.8Z" transform="translate(-6.89 -5.76)"/><path class="cls-2" d="M90.79,24.13h-3.4V22.49a3.87,3.87,0,0,1-1.71,1.59,4.67,4.67,0,0,1-2.13.5,4.84,4.84,0,0,1-4.31-2.28,9,9,0,0,1-1.32-5.08,7.76,7.76,0,0,1,1.67-5.28,4.89,4.89,0,0,1,3.84-1.73A4.41,4.41,0,0,1,86,11a4.48,4.48,0,0,1,1.27,1.38h0V5.76h3.47Zm-8.7-4a2.44,2.44,0,0,0,2.3,1.47,2.76,2.76,0,0,0,2.42-1.22,4.81,4.81,0,0,0,.72-2.74,6.08,6.08,0,0,0-.63-3,2.52,2.52,0,0,0-2.37-1.33,2.56,2.56,0,0,0-2.34,1.26,5.55,5.55,0,0,0-.66,2.91A6,6,0,0,0,82.09,20.15Z" transform="translate(-6.89 -5.76)"/><path class="cls-2" d="M104,21.53a4.3,4.3,0,0,0,.21,1.57,1.18,1.18,0,0,0,.54.54v.49h-3.73a6.36,6.36,0,0,1-.23-.75c0-.19-.07-.45-.1-.8a7.57,7.57,0,0,1-1.57,1.29,5.23,5.23,0,0,1-2.72.71,4,4,0,0,1-2.76-1,3.78,3.78,0,0,1-1.27-3.05,4.24,4.24,0,0,1,1.1-3.05,4.52,4.52,0,0,1,2.75-1.31l3.14-.47a2.62,2.62,0,0,0,.82-.3.87.87,0,0,0,.42-.75,1.32,1.32,0,0,0-.82-1.36,3.42,3.42,0,0,0-1.45-.24A1.87,1.87,0,0,0,96.21,15H92.86a4.85,4.85,0,0,1,2.06-4,7.36,7.36,0,0,1,3.84-.82,7.25,7.25,0,0,1,3.33.7,3.45,3.45,0,0,1,2,3.26Zm-3.4-4a2,2,0,0,1-.77.4,9.49,9.49,0,0,1-1.57.35,5.27,5.27,0,0,0-1.69.56,1.71,1.71,0,0,0-.7,1.5,1.61,1.61,0,0,0,.53,1.32,1.73,1.73,0,0,0,1.08.35,3.27,3.27,0,0,0,2.14-.73,2.4,2.4,0,0,0,1-2Z" transform="translate(-6.89 -5.76)"/><path class="cls-2" d="M118.22,24.18h-3.35V22.3h-.05A4.23,4.23,0,0,1,113.16,24a4.85,4.85,0,0,1-2.44.61,4.32,4.32,0,0,1-3.26-1.22,5.23,5.23,0,0,1-1.26-3.8V10.21h3.47V19a2.44,2.44,0,0,0,.77,2,2.48,2.48,0,0,0,1.62.47,2.44,2.44,0,0,0,1.73-.66,3.06,3.06,0,0,0,.94-2.46v-8.2h3.49Z" transform="translate(-6.89 -5.76)"/><path class="cls-2" d="M123.85,12.34h.05A5.07,5.07,0,0,1,125.19,11a4.36,4.36,0,0,1,2.55-.75,4.88,4.88,0,0,1,3.85,1.73,7.78,7.78,0,0,1,1.64,5.28,9,9,0,0,1-1.32,5.08,4.7,4.7,0,0,1-4.19,2.28,4.65,4.65,0,0,1-2.16-.5,4,4,0,0,1-1.71-1.59h-.07v1.64h-3.4V5.76h3.47ZM129,14.59a2.52,2.52,0,0,0-2.3-1.26,2.55,2.55,0,0,0-2.41,1.33,6.36,6.36,0,0,0-.59,3,4.82,4.82,0,0,0,.71,2.74,2.67,2.67,0,0,0,2.39,1.22,2.48,2.48,0,0,0,2.27-1.47,5.54,5.54,0,0,0,.61-2.65A5.55,5.55,0,0,0,129,14.59Z" transform="translate(-6.89 -5.76)"/><path class="cls-2" d="M145.61,21.53a4.3,4.3,0,0,0,.21,1.57,1.18,1.18,0,0,0,.54.54v.49h-3.73a6.36,6.36,0,0,1-.23-.75,7.13,7.13,0,0,1-.1-.8,7.84,7.84,0,0,1-1.57,1.29,5.25,5.25,0,0,1-2.72.71,4,4,0,0,1-2.76-1A3.78,3.78,0,0,1,134,20.57a4.24,4.24,0,0,1,1.1-3.05,4.52,4.52,0,0,1,2.74-1.31l3.15-.47a2.73,2.73,0,0,0,.82-.3.87.87,0,0,0,.42-.75,1.34,1.34,0,0,0-.82-1.36,3.48,3.48,0,0,0-1.46-.24,2.11,2.11,0,0,0-1.71.63,2.15,2.15,0,0,0-.44,1.27h-3.35a4.85,4.85,0,0,1,2.06-4,7.36,7.36,0,0,1,3.84-.82,7.25,7.25,0,0,1,3.33.7,3.45,3.45,0,0,1,2,3.26Zm-3.4-4a2,2,0,0,1-.78.4,9.25,9.25,0,0,1-1.57.35,5.19,5.19,0,0,0-1.68.56,1.71,1.71,0,0,0-.71,1.5,1.62,1.62,0,0,0,.54,1.32,1.73,1.73,0,0,0,1.08.35,3.22,3.22,0,0,0,2.13-.73,2.39,2.39,0,0,0,1-2Z" transform="translate(-6.89 -5.76)"/></svg>