<?xml version="1.0" encoding="utf-8"?>
<!-- Generator: Adobe Illustrator 24.0.0, SVG Export Plug-In . SVG Version: 6.00 Build 0)  -->
<svg version="1.1" id="Calque_1" xmlns="http://www.w3.org/2000/svg" xmlns:xlink="http://www.w3.org/1999/xlink" x="0px" y="0px"
	 viewBox="0 0 300.49 62.44" style="enable-background:new 0 0 300.49 62.44;" xml:space="preserve">
<style type="text/css">
	.st0{fill:#2F855B;}
	.st1{fill:#2D3747;}
</style>
<g>
	<path class="st0" d="M20.19,26.13h0.09c0.78-1.19,1.64-2.11,2.58-2.77c1.44-1,3.14-1.5,5.11-1.5c3.12,0,5.69,1.16,7.69,3.47
		c2.19,2.5,3.28,6.02,3.28,10.55c0,4.13-0.88,7.52-2.63,10.17c-1.97,3.03-4.77,4.55-8.39,4.55c-1.59,0-3.03-0.33-4.31-0.98
		c-1.47-0.72-2.61-1.78-3.42-3.19h-0.14v3.28h-6.8V12.96h6.94V26.13z M30.55,30.63c-1.03-1.69-2.56-2.53-4.59-2.53
		c-2.22,0-3.83,0.89-4.83,2.67c-0.78,1.44-1.17,3.44-1.17,6c0,2.25,0.47,4.08,1.41,5.48c1.09,1.63,2.69,2.44,4.78,2.44
		c1.97,0,3.48-0.98,4.55-2.95c0.81-1.53,1.22-3.3,1.22-5.3C31.91,34.04,31.46,32.1,30.55,30.63z"/>
	<path class="st0" d="M64.73,41.83c-0.84,3-2.44,5.27-4.78,6.8c-1.94,1.31-4.17,1.97-6.7,1.97c-3.97,0-7.06-1.09-9.28-3.28
		c-2.5-2.53-3.75-6.42-3.75-11.67c-0.03-3.06,0.63-5.78,1.97-8.16c2.13-3.75,5.64-5.63,10.55-5.63c3.28,0,5.97,0.94,8.06,2.81
		c2.78,2.53,4.17,6.56,4.17,12.09v1.41H47.15v0.19c0.25,1.78,0.66,3.13,1.22,4.03c0.97,1.63,2.59,2.44,4.88,2.44
		c0.97,0,1.86-0.27,2.67-0.8c0.84-0.56,1.44-1.3,1.78-2.2H64.73z M57.93,33.44c-0.19-1.97-0.84-3.45-1.97-4.45
		c-0.94-0.78-2.03-1.17-3.28-1.17c-1.53,0-2.75,0.5-3.66,1.5c-0.88,0.97-1.41,2.34-1.59,4.13H57.93z"/>
	<path class="st0" d="M91.97,49.71h-6.94V33.26c-0.03-1.5-0.25-2.64-0.66-3.42c-0.69-1.28-1.97-1.92-3.84-1.92
		c-1.63,0-2.95,0.53-3.98,1.59c-1.06,1.13-1.59,2.69-1.59,4.69v15.52h-6.94V22.62h6.7v3.98h0.05c0.78-1.31,1.61-2.31,2.48-3
		c1.5-1.16,3.33-1.73,5.48-1.73c2.72,0,4.91,0.77,6.56,2.3c1.78,1.63,2.67,3.91,2.67,6.84V49.71z"/>
	<path class="st0" d="M117.67,47.08c-2.41,2.34-5.44,3.52-9.09,3.52c-3.75,0-6.84-1.17-9.28-3.52c-2.72-2.59-4.08-6.2-4.08-10.83
		c0-4.66,1.36-8.3,4.08-10.92c2.44-2.31,5.53-3.47,9.28-3.47c3.66,0,6.69,1.16,9.09,3.47c2.72,2.63,4.08,6.27,4.08,10.92
		C121.75,40.88,120.39,44.49,117.67,47.08z M113.5,30.72c-1.03-1.88-2.67-2.81-4.92-2.81c-2.34,0-4.03,0.94-5.06,2.81
		c-0.72,1.38-1.08,3.22-1.08,5.53c0,2.19,0.36,3.98,1.08,5.39c1.03,1.91,2.72,2.86,5.06,2.86c2.25,0,3.89-0.95,4.92-2.86
		c0.75-1.41,1.13-3.2,1.13-5.39C114.62,33.98,114.25,32.13,113.5,30.72z"/>
	<path class="st0" d="M133.24,19.66h-6.98v-6.7h6.98V19.66z M133.24,22.85v26.86h-6.98V22.85H133.24z"/>
	<path class="st0" d="M147.08,22.29h4.31v5.11h-4.31v15.56c0,0.91,0.13,1.47,0.38,1.69c0.34,0.34,1.19,0.52,2.53,0.52l1.41-0.09
		v5.34l-1.36,0.05l-1.92,0.14h-0.84c-2.84,0-4.81-0.55-5.91-1.64c-0.88-0.87-1.31-2.3-1.31-4.27V27.4h-3.52v-5.11h3.52v-7.41h7.03
		V22.29z"/>
</g>
<g>
	<path class="st1" d="M183.06,49.71h-6.8v-3.28c-0.81,1.41-1.95,2.47-3.42,3.19c-1.31,0.66-2.73,0.98-4.27,0.98
		c-3.75,0-6.63-1.52-8.63-4.55c-1.75-2.66-2.63-6.05-2.63-10.17c0-4.5,1.11-8.02,3.33-10.55c2.03-2.31,4.59-3.47,7.69-3.47
		c2,0,3.72,0.5,5.16,1.5c0.97,0.66,1.81,1.58,2.53,2.77h0.09V12.96h6.94V49.71z M165.67,41.74c1,1.97,2.53,2.95,4.59,2.95
		c2.09,0,3.7-0.81,4.83-2.44c0.97-1.44,1.45-3.27,1.45-5.48c0-2.53-0.42-4.53-1.27-6c-1-1.78-2.58-2.67-4.73-2.67
		c-2.09,0-3.66,0.84-4.69,2.53c-0.88,1.44-1.31,3.38-1.31,5.81C164.54,38.48,164.92,40.24,165.67,41.74z"/>
	<path class="st1" d="M209.55,44.51c0,1.44,0.14,2.48,0.42,3.14c0.22,0.47,0.58,0.83,1.08,1.08v0.98h-7.45
		c-0.22-0.63-0.38-1.13-0.47-1.5c-0.06-0.38-0.13-0.91-0.19-1.59c-1.19,1.19-2.23,2.05-3.14,2.58c-1.59,0.94-3.41,1.41-5.44,1.41
		c-2.22,0-4.06-0.64-5.53-1.92c-1.69-1.44-2.53-3.47-2.53-6.09c0-2.53,0.73-4.56,2.2-6.09c1.31-1.41,3.14-2.28,5.48-2.63l6.28-0.94
		c0.72-0.16,1.27-0.36,1.64-0.61c0.56-0.38,0.84-0.87,0.84-1.5c0-1.34-0.55-2.25-1.64-2.72c-0.66-0.31-1.63-0.47-2.91-0.47
		c-1.59,0-2.73,0.42-3.42,1.27c-0.53,0.63-0.83,1.47-0.89,2.53h-6.7c0.34-3.78,1.72-6.42,4.13-7.92c1.78-1.09,4.34-1.64,7.69-1.64
		c2.59,0,4.81,0.47,6.66,1.41c2.59,1.38,3.89,3.55,3.89,6.52V44.51z M202.76,36.49c-0.34,0.31-0.86,0.58-1.55,0.8
		c-0.72,0.25-1.77,0.48-3.14,0.7c-1.59,0.31-2.72,0.69-3.38,1.13c-0.94,0.66-1.41,1.66-1.41,3c0,1.16,0.36,2.03,1.08,2.63
		c0.59,0.47,1.31,0.7,2.16,0.7c1.66,0,3.08-0.48,4.27-1.45c1.31-1.03,1.97-2.34,1.97-3.94V36.49z"/>
	<path class="st1" d="M237.92,49.8h-6.7v-3.75h-0.09c-0.81,1.44-1.92,2.55-3.33,3.33c-1.41,0.81-3.03,1.22-4.88,1.22
		c-2.78,0-4.95-0.81-6.52-2.44c-1.69-1.72-2.53-4.25-2.53-7.59v-18.7h6.94v17.63c0,1.91,0.52,3.27,1.55,4.08
		c0.75,0.63,1.83,0.94,3.23,0.94c1.38,0,2.53-0.44,3.47-1.31c1.25-1.09,1.88-2.73,1.88-4.92V21.87h6.98V49.8z"/>
	<path class="st1" d="M249.18,26.13h0.09c0.78-1.19,1.64-2.11,2.58-2.77c1.44-1,3.14-1.5,5.11-1.5c3.13,0,5.69,1.16,7.69,3.47
		c2.19,2.5,3.28,6.02,3.28,10.55c0,4.13-0.88,7.52-2.63,10.17c-1.97,3.03-4.77,4.55-8.39,4.55c-1.59,0-3.03-0.33-4.31-0.98
		c-1.47-0.72-2.61-1.78-3.42-3.19h-0.14v3.28h-6.8V12.96h6.94V26.13z M259.54,30.63c-1.03-1.69-2.56-2.53-4.59-2.53
		c-2.22,0-3.83,0.89-4.83,2.67c-0.78,1.44-1.17,3.44-1.17,6c0,2.25,0.47,4.08,1.41,5.48c1.09,1.63,2.69,2.44,4.78,2.44
		c1.97,0,3.48-0.98,4.55-2.95c0.81-1.53,1.22-3.3,1.22-5.3C260.9,34.04,260.45,32.1,259.54,30.63z"/>
	<path class="st1" d="M292.69,44.51c0,1.44,0.14,2.48,0.42,3.14c0.22,0.47,0.58,0.83,1.08,1.08v0.98h-7.45
		c-0.22-0.63-0.38-1.13-0.47-1.5c-0.06-0.38-0.13-0.91-0.19-1.59c-1.19,1.19-2.23,2.05-3.14,2.58c-1.59,0.94-3.41,1.41-5.44,1.41
		c-2.22,0-4.06-0.64-5.53-1.92c-1.69-1.44-2.53-3.47-2.53-6.09c0-2.53,0.73-4.56,2.2-6.09c1.31-1.41,3.14-2.28,5.48-2.63l6.28-0.94
		c0.72-0.16,1.27-0.36,1.64-0.61c0.56-0.38,0.84-0.87,0.84-1.5c0-1.34-0.55-2.25-1.64-2.72c-0.66-0.31-1.63-0.47-2.91-0.47
		c-1.59,0-2.73,0.42-3.42,1.27c-0.53,0.63-0.83,1.47-0.89,2.53h-6.7c0.34-3.78,1.72-6.42,4.13-7.92c1.78-1.09,4.34-1.64,7.69-1.64
		c2.59,0,4.81,0.47,6.66,1.41c2.59,1.38,3.89,3.55,3.89,6.52V44.51z M285.89,36.49c-0.34,0.31-0.86,0.58-1.55,0.8
		c-0.72,0.25-1.77,0.48-3.14,0.7c-1.59,0.31-2.72,0.69-3.38,1.13c-0.94,0.66-1.41,1.66-1.41,3c0,1.16,0.36,2.03,1.08,2.63
		c0.59,0.47,1.31,0.7,2.16,0.7c1.66,0,3.08-0.48,4.27-1.45c1.31-1.03,1.97-2.34,1.97-3.94V36.49z"/>
</g>
</svg>
